<svg width="142" height="911" viewBox="0 0 142 911" fill="none" xmlns="http://www.w3.org/2000/svg">
<g clip-path="url(#clip0_35_335)">
<path d="M15.9763 764H14.7863C14.0363 764 13.2763 764.15 12.5463 764.26L11.6563 764.39C10.7563 764.51 9.85632 764.67 9.17632 764.8L8.34631 764.94C7.76449 765.021 7.18709 765.131 6.61631 765.27C6.25631 765.37 5.88631 765.49 5.50631 765.63C5.06292 765.792 4.62892 765.979 4.20632 766.19C3.8498 766.415 3.51502 766.673 3.20632 766.96L3.10632 767.05L3.00631 767.14C2.62457 767.49 2.28857 767.886 2.00631 768.32C1.8595 768.538 1.73233 768.769 1.62631 769.01L1.37631 769.23C0.756985 769.854 0.399296 770.691 0.376314 771.57C0.246314 773.24 0.096313 775.46 0.016313 777.72C0.016313 778.39 0.016313 779.07 0.016313 779.72C0.016313 779.98 0.016313 780.23 0.016313 780.48C0.016313 781.57 0.016313 782.66 0.016313 783.75C0.016313 785.16 0.016313 786.59 0.016313 787.98C0.016313 790.39 -0.0536851 792.87 0.0963149 795.31C0.172417 796.514 0.31934 797.713 0.536317 798.9C0.710294 799.839 1.04884 800.739 1.53632 801.56C2.43594 802.951 3.75187 804.022 5.29631 804.62C6.04849 804.956 6.82799 805.227 7.62631 805.43C8.28631 805.59 8.96631 805.69 9.62631 805.79C10.5663 805.92 11.5163 806.02 12.3263 806.1C13.1363 806.18 14.0563 806.25 15.0163 806.3C15.9763 806.35 16.6763 806.37 17.3963 806.37C18.5397 806.377 19.6823 806.307 20.8163 806.16L21.2663 806.11C21.8374 806.046 22.4048 805.952 22.9663 805.83C23.4665 805.715 23.9604 805.575 24.4463 805.41C25.5131 805.053 26.5497 804.612 27.5463 804.09C27.9123 803.895 28.2663 803.678 28.6063 803.44C29.1876 803.072 29.7304 802.647 30.2263 802.17C31.0402 801.385 31.7163 800.469 32.2263 799.46C32.8614 798.195 33.3222 796.849 33.5963 795.46C33.8344 794.233 34.0079 792.995 34.1163 791.75C34.2863 790.05 34.3163 788.31 34.3563 786.62V786.09C34.3563 784.01 34.4163 782.09 34.4163 780.2C34.4218 778.092 34.2006 775.99 33.7563 773.93C33.5024 772.81 33.1199 771.722 32.6163 770.69C32.1988 769.839 31.6138 769.08 30.8963 768.46C30.2876 767.935 29.6158 767.488 28.8963 767.13C27.8687 766.665 26.8134 766.265 25.7363 765.93L25.2563 765.77C24.6463 765.57 24.0063 765.36 23.3763 765.18C21.4171 764.61 19.408 764.228 17.3763 764.04C17.0063 764.02 16.4863 764 15.9763 764Z" fill="#03A9F4"/>
<path d="M72.7464 789.23C73.3331 789.23 73.9231 789.23 74.5164 789.23C75.9492 789.301 77.3738 789.488 78.7764 789.79C79.3699 789.914 79.952 790.088 80.5164 790.31C81.2705 790.571 81.9867 790.931 82.6464 791.38C83.3875 791.857 83.9582 792.558 84.2764 793.38C84.4774 793.811 84.6478 794.255 84.7864 794.71C84.9691 795.298 85.1062 795.9 85.1964 796.51C85.5915 799.315 85.712 802.152 85.5564 804.98C85.5564 806.31 85.4964 807.65 85.4364 808.98C85.4014 810.466 85.2812 811.948 85.0764 813.42C85.0219 813.953 84.9009 814.477 84.7164 814.98C84.5625 815.41 84.3752 815.828 84.1564 816.23C83.9365 816.613 83.6857 816.978 83.4064 817.32C83.164 817.641 82.8855 817.933 82.5764 818.19C82.2622 818.435 81.9276 818.652 81.5764 818.84C81.3251 818.975 81.0644 819.092 80.7964 819.19C80.5002 819.316 80.1962 819.423 79.8864 819.51C79.5844 819.597 79.2771 819.663 78.9664 819.71C78.4964 819.77 78.0364 819.85 77.5664 819.88C76.2264 819.97 74.8864 819.99 73.5664 819.95L71.4664 819.86L70.4664 819.77C70.0031 819.728 69.5424 819.662 69.0864 819.57C68.6901 819.507 68.3014 819.403 67.9264 819.26C67.4241 819.075 66.9444 818.833 66.4964 818.54C66.0189 818.214 65.6082 817.8 65.2864 817.32C64.9907 816.845 64.7492 816.339 64.5664 815.81C64.3094 815.04 64.1515 814.24 64.0964 813.43C63.9631 812.195 63.9096 810.952 63.9364 809.71C63.9364 806.96 64.0464 804.2 64.0864 801.45C64.0864 800.117 64.0864 798.783 64.0864 797.45V796.92C64.0282 796.375 64.0048 795.827 64.0164 795.28C64.0164 795.16 64.0164 795.04 64.0164 794.92C64.0164 794.41 64.0164 793.92 63.9464 793.4C63.9353 793.115 63.9889 792.831 64.1032 792.569C64.2175 792.308 64.3895 792.075 64.6064 791.89C64.6898 791.725 64.7868 791.568 64.8964 791.42C65.2764 790.869 65.7888 790.422 66.3864 790.12C66.7564 789.932 67.141 789.775 67.5364 789.65C67.8228 789.574 68.1132 789.513 68.4064 789.47C69.1702 789.342 69.9421 789.268 70.7164 789.25L72.7464 789.23ZM69.1764 792.98C68.9462 793.021 68.719 793.078 68.4964 793.15L68.2764 793.28L68.2064 793.35V793.4C68.2864 794.67 68.3564 795.94 68.3864 797.22C68.4664 799.887 68.5331 802.573 68.5864 805.28C68.5864 807.85 68.5864 810.41 68.9364 812.96C69.0198 813.547 69.1537 814.126 69.3364 814.69V814.76L69.5364 814.87C70.0069 815.025 70.4882 815.145 70.9764 815.23C72.1964 815.37 73.4264 815.46 74.6564 815.53C75.9116 815.615 77.1712 815.615 78.4264 815.53C78.8614 815.455 79.2896 815.345 79.7064 815.2L80.0164 815.02C80.1472 814.897 80.2708 814.767 80.3864 814.63C80.5353 814.402 80.6689 814.165 80.7864 813.92C80.8861 813.642 80.9663 813.358 81.0264 813.07C81.2362 810.589 81.3163 808.099 81.2664 805.61C81.325 802.984 81.2482 800.358 81.0364 797.74C80.9142 796.825 80.7032 795.924 80.4064 795.05L80.3064 794.88L80.1464 794.71C79.8256 794.508 79.4915 794.327 79.1464 794.17C78.9064 794.08 78.6764 793.99 78.4264 793.92C78.1764 793.85 77.6664 793.71 77.2864 793.62C76.5683 793.436 75.8405 793.293 75.1064 793.19C74.1064 793.07 73.1764 792.97 72.2064 792.91L70.4864 792.92C70.0489 792.911 69.6113 792.931 69.1764 792.98Z" fill="#03A9F4"/>
<path d="M102.236 856.92C103.526 856.92 104.826 856.92 106.116 857.01C106.766 857.01 107.406 857.1 108.056 857.1C108.706 857.1 109.256 857.1 109.856 857.1C111.29 857.137 112.716 857.312 114.116 857.62C115.356 857.9 116.606 858.14 117.846 858.44C119.413 858.687 120.911 859.256 122.246 860.11C122.689 860.42 123.098 860.775 123.466 861.17C123.867 861.589 124.204 862.064 124.466 862.58C124.827 863.301 125.118 864.054 125.336 864.83C125.676 866.04 125.976 867.26 126.286 868.48C126.936 870.98 127.346 873.48 127.746 876.08C127.956 877.39 128.176 878.7 128.356 880.02C128.576 881.59 128.716 883.17 128.806 884.76C128.946 887.38 129.066 890 128.986 892.62C128.986 894.08 128.876 895.54 128.796 897C128.707 898.548 128.536 900.09 128.286 901.62C128.139 902.504 127.877 903.364 127.506 904.18C127.207 904.8 126.827 905.379 126.376 905.9C125.863 906.501 125.255 907.014 124.576 907.42C123.989 907.77 123.378 908.078 122.746 908.34H122.676L122.346 908.48L122.206 908.54C121.596 908.79 120.976 909.04 120.346 909.26C119.716 909.48 119.096 909.66 118.466 909.84L117.286 910.17C116.47 910.368 115.642 910.512 114.806 910.6C114.186 910.68 113.546 910.74 112.916 910.79C110.157 910.982 107.39 911.028 104.626 910.93C101.742 910.885 98.8654 910.604 96.0264 910.09C94.7488 909.852 93.4866 909.538 92.2464 909.15C91.4471 908.901 90.6625 908.607 89.8964 908.27C89.3154 908.031 88.7675 907.719 88.2664 907.34C87.6141 906.893 87.0595 906.318 86.6364 905.65C86.3464 905.152 86.134 904.612 86.0064 904.05C85.8518 903.241 85.7515 902.422 85.7064 901.6C85.6264 900.33 85.5964 899.06 85.6364 897.79C85.8264 892.27 85.9164 886.74 86.0264 881.22C86.0964 877.8 86.1664 874.38 86.1964 870.96C86.1054 870.858 86.025 870.748 85.9564 870.63C85.7775 870.327 85.6841 869.982 85.6864 869.63C85.6114 868.338 85.6114 867.042 85.6864 865.75C85.6551 864.235 85.9626 862.731 86.5864 861.35C87.0317 860.448 87.7256 859.691 88.5864 859.17C89.2222 858.834 89.8929 858.569 90.5864 858.38C91.1764 858.21 91.7664 858 92.3764 857.87C92.9864 857.74 93.5464 857.6 94.1364 857.51C94.7264 857.42 95.3164 857.32 95.9064 857.22C96.6764 857.1 97.4464 857.02 98.2264 856.95C99.4864 856.92 100.876 856.92 102.236 856.92ZM94.8164 861.6L93.2964 861.82L93.6264 861.77C93.0364 861.88 92.4564 862.02 91.8764 862.18C91.4764 862.29 91.0764 862.39 90.6864 862.53L90.3264 862.72L90.2264 862.83C90.1064 863.01 89.9964 863.18 89.8864 863.37C89.7764 863.56 89.7964 863.73 89.7564 863.92C89.6764 864.76 89.6764 865.62 89.6664 866.47C89.6564 867.32 89.6664 867.89 89.6664 868.6V869.22C89.7264 874.68 89.8464 880.15 89.9664 885.61C90.0264 888.44 90.0764 891.26 90.1464 894.08C90.2064 896.54 90.2764 899 90.5664 901.44C90.6344 901.995 90.7481 902.544 90.9064 903.08V903.17L91.1664 903.42C91.5304 903.661 91.9114 903.875 92.3064 904.06C93.3359 904.455 94.3877 904.789 95.4564 905.06C96.0564 905.21 96.6564 905.36 97.2664 905.47C97.8764 905.58 98.6764 905.71 99.3864 905.81C102.044 906.09 104.715 906.221 107.386 906.2C108.686 906.2 109.976 906.2 111.266 906.2C112.556 906.2 113.636 906.05 114.816 905.91C115.975 905.689 117.117 905.391 118.236 905.02C118.976 904.8 119.696 904.53 120.416 904.24L120.746 904.09C121.259 903.858 121.75 903.584 122.216 903.27L122.606 902.9C122.716 902.73 122.816 902.55 122.916 902.37C123.062 901.929 123.172 901.478 123.246 901.02C123.375 899.774 123.438 898.522 123.436 897.27C123.436 895.81 123.436 894.34 123.436 892.88C123.436 891.42 123.376 890.15 123.306 888.79C123.166 886.28 123.046 883.79 122.736 881.29C122.496 879.55 122.216 877.82 121.986 876.09C121.756 874.36 121.426 872.38 120.986 870.53C120.786 869.59 120.586 868.64 120.356 867.7C120.126 866.76 119.966 866.09 119.696 865.31C119.596 865.13 119.496 864.95 119.386 864.78C119.25 864.62 119.103 864.47 118.946 864.33C118.789 864.227 118.625 864.133 118.456 864.05C117.238 863.607 115.996 863.233 114.736 862.93C114.056 862.76 113.376 862.58 112.736 862.39C112.187 862.237 111.63 862.116 111.066 862.03C110.546 861.97 110.066 861.93 109.506 861.89C108.946 861.85 108.356 861.89 107.776 861.81L105.926 861.67C104.566 861.58 103.196 861.5 101.826 861.44C100.456 861.38 99.1964 861.31 97.8864 861.36C96.8764 861.35 95.8464 861.47 94.8164 861.6Z" fill="#99DDC6"/>
<path d="M112.376 799.38H113.376C114.716 799.38 116.056 799.47 117.376 799.55C118.696 799.63 120.096 799.72 121.456 799.78C122.816 799.84 124.026 799.99 125.316 800.07C126.606 800.15 127.956 800.28 129.316 800.37C130.779 800.42 132.229 800.648 133.636 801.05C134.375 801.301 135.091 801.616 135.776 801.99C136.561 802.387 137.261 802.934 137.836 803.6C138.32 804.175 138.726 804.81 139.046 805.49C139.356 806.22 139.636 806.95 139.876 807.71C140.274 808.919 140.566 810.16 140.746 811.42C140.961 812.931 141.082 814.454 141.106 815.98C141.105 817.23 141.028 818.479 140.876 819.72C140.726 821.22 140.616 822.72 140.346 824.21C140.128 825.517 139.794 826.802 139.346 828.05C139.08 828.776 138.745 829.476 138.346 830.14C138.154 830.427 137.947 830.704 137.726 830.97C137.6 831.153 137.456 831.324 137.296 831.48C136.873 831.866 136.407 832.201 135.906 832.48C134.458 833.202 132.873 833.611 131.256 833.68C129.926 833.83 128.596 833.94 127.256 834.02C125.916 834.1 124.586 834.1 123.256 834.11C121.926 834.12 120.606 834.11 119.256 834.11C117.906 834.11 116.446 834.11 115.036 834.03C113.626 833.95 112.486 833.85 111.216 833.76C109.946 833.67 108.566 833.54 107.216 833.38C106.306 833.27 105.396 833.16 104.496 832.98C103.821 832.849 103.154 832.682 102.496 832.48C100.764 832.081 99.1859 831.184 97.9564 829.9C97.6089 829.499 97.2945 829.071 97.0164 828.62C96.742 828.148 96.511 827.653 96.3264 827.14C96.0419 826.294 95.8573 825.418 95.7764 824.53C95.6514 823.276 95.6514 822.013 95.7764 820.76C95.8764 819.36 96.0564 817.96 96.2464 816.57L96.6364 813.67C96.8264 812.05 97.0064 810.44 97.2764 808.84C97.3895 808.201 97.5431 807.569 97.7364 806.95C97.9172 806.357 98.1343 805.776 98.3864 805.21C98.6691 804.638 99.0218 804.104 99.4364 803.62C99.9398 802.985 100.533 802.425 101.196 801.96L101.486 801.92L101.676 801.8C102.236 801.472 102.821 801.191 103.426 800.96C104.901 800.296 106.5 799.955 108.116 799.96C108.404 799.801 108.728 799.719 109.056 799.72H109.346C110.026 799.63 110.696 799.55 111.346 799.51C111.716 799.39 112.046 799.38 112.376 799.38ZM108.756 804.85C108.561 804.873 108.368 804.906 108.176 804.95C107.734 805.048 107.3 805.178 106.876 805.34C106.216 805.62 105.581 805.954 104.976 806.34L104.776 806.47C104.639 806.599 104.509 806.736 104.386 806.88C104.204 807.145 104.04 807.422 103.896 807.71C103.631 808.55 103.43 809.409 103.296 810.28C102.996 812.7 102.806 815.14 102.506 817.56C102.346 818.91 102.226 820.26 102.156 821.62C102.086 822.675 102.086 823.734 102.156 824.79C102.226 825.08 102.296 825.37 102.386 825.66C102.487 825.849 102.597 826.032 102.716 826.21L102.856 826.36C103.143 826.541 103.44 826.705 103.746 826.85C104.541 827.16 105.356 827.414 106.186 827.61C107.076 827.82 107.996 827.94 108.906 828.08C110.006 828.22 111.106 828.33 112.206 828.47C113.576 828.65 114.936 828.76 116.316 828.83C119.026 828.98 121.746 829.01 124.466 829.05C126.941 829.098 129.417 828.982 131.876 828.7C132.335 828.634 132.787 828.526 133.226 828.38L133.646 828.14L133.836 827.94C134.111 827.52 134.352 827.078 134.556 826.62C134.946 825.388 135.237 824.128 135.426 822.85C135.526 822.03 135.596 821.21 135.656 820.39C135.716 819.57 135.836 818.6 135.906 817.7C135.976 816.8 135.986 815.84 135.976 814.9C135.966 813.96 135.926 813.09 135.826 812.19C135.718 811.311 135.557 810.44 135.346 809.58C135.139 808.701 134.885 807.833 134.586 806.98C134.479 806.745 134.355 806.518 134.216 806.3L134.126 806.21C133.849 806.031 133.562 805.867 133.266 805.72C132.673 805.499 132.06 805.331 131.436 805.22C130.436 805.13 129.436 805.11 128.516 805.04C127.396 804.95 126.276 804.91 125.156 804.82C123.846 804.73 122.536 804.62 121.226 804.56C119.916 804.5 118.716 804.44 117.456 804.36H116.836C114.126 804.51 111.426 804.56 108.756 804.85Z" fill="#4D4962"/>
<path d="M68.9963 844.08C68.9963 844.33 68.9963 844.57 68.9963 844.82C68.9963 845.82 68.9363 846.82 68.8763 847.82C68.8163 848.82 68.7463 849.88 68.6963 850.91C68.6463 851.94 68.5463 852.85 68.4863 853.83C68.4263 854.81 68.3263 855.83 68.2463 856.83C68.2118 857.94 68.0405 859.042 67.7363 860.11C67.5494 860.667 67.3117 861.206 67.0263 861.72C66.7305 862.321 66.3154 862.855 65.8063 863.29C65.3741 863.655 64.8927 863.958 64.3763 864.19C63.828 864.433 63.2672 864.646 62.6963 864.83C61.7802 865.13 60.8401 865.351 59.8863 865.49C58.7428 865.65 57.5907 865.74 56.4363 865.76C55.487 865.755 54.5387 865.695 53.5963 865.58C52.4663 865.47 51.3263 865.39 50.2063 865.18C49.2145 865.014 48.2403 864.756 47.2963 864.41C46.7429 864.201 46.2105 863.94 45.7063 863.63C45.4863 863.49 45.2863 863.32 45.0863 863.17C44.9493 863.065 44.8191 862.951 44.6963 862.83C44.3947 862.513 44.1328 862.16 43.9163 861.78C43.3667 860.684 43.0533 859.485 42.9963 858.26C42.8863 857.26 42.8063 856.26 42.7463 855.26C42.6863 854.26 42.6863 853.26 42.6763 852.26C42.6663 851.26 42.6763 850.26 42.6763 849.26C42.6763 848.26 42.6763 847.13 42.7263 846.06C42.7763 844.99 42.8663 844.14 42.9363 843.17C43.0063 842.2 43.0963 841.17 43.2263 840.17C43.3063 839.48 43.3863 838.79 43.5263 838.11C43.6271 837.604 43.7539 837.103 43.9063 836.61C44.2151 835.29 44.9116 834.092 45.9063 833.17C46.2195 832.906 46.554 832.669 46.9063 832.46C47.2638 832.254 47.6385 832.08 48.0263 831.94C48.6732 831.718 49.3449 831.577 50.0263 831.52C50.9739 831.425 51.9287 831.425 52.8763 831.52C53.9463 831.59 54.9963 831.73 56.0563 831.88L58.2463 832.17C59.4663 832.32 60.6963 832.45 61.9063 832.65C62.389 832.741 62.8663 832.857 63.3363 833C63.7861 833.14 64.2269 833.307 64.6563 833.5C65.0882 833.711 65.4915 833.977 65.8563 834.29C66.336 834.673 66.7601 835.12 67.1163 835.62L67.2363 835.81L67.3263 835.95C67.5715 836.374 67.7854 836.815 67.9663 837.27C68.4673 838.39 68.7263 839.603 68.7263 840.83C68.8496 841.05 68.9149 841.298 68.9163 841.55V841.77C68.9863 842.28 69.0463 842.77 69.0763 843.31C68.9963 843.58 68.9963 843.83 68.9963 844.08ZM64.8663 841.34C64.8663 841.19 64.8663 841.04 64.7863 840.9C64.7082 840.56 64.608 840.226 64.4863 839.9C64.2642 839.4 64.0034 838.919 63.7063 838.46L63.5963 838.31C63.504 838.203 63.4037 838.102 63.2963 838.01C63.0956 837.871 62.8851 837.748 62.6663 837.64C62.0116 837.439 61.3432 837.285 60.6663 837.18C58.8363 836.96 56.9963 836.81 55.1563 836.59C54.1563 836.47 53.1563 836.38 52.0863 836.32C51.2871 836.27 50.4855 836.27 49.6863 836.32C49.4625 836.365 49.2419 836.425 49.0263 836.5C48.8798 836.568 48.7393 836.648 48.6063 836.74L48.4963 836.85C48.3579 837.066 48.231 837.29 48.1163 837.52C47.8844 838.123 47.6939 838.741 47.5463 839.37C47.3863 840.05 47.2963 840.74 47.1863 841.37C47.0863 842.21 46.9963 843.05 46.8863 843.88C46.7563 844.88 46.6763 845.95 46.6163 846.99C46.5063 849.04 46.4863 851.1 46.4563 853.16C46.4179 855.034 46.5048 856.908 46.7163 858.77C46.7717 859.11 46.8553 859.444 46.9663 859.77C47.0188 859.877 47.0789 859.981 47.1463 860.08L47.2963 860.23C47.6153 860.435 47.9496 860.616 48.2963 860.77C49.2304 861.066 50.1868 861.287 51.1563 861.43C51.7763 861.5 52.3963 861.56 53.0163 861.6C53.6363 861.64 54.3663 861.74 55.0163 861.79C55.6663 861.84 56.4263 861.85 57.1363 861.79C57.8244 861.788 58.512 861.751 59.1963 861.68C59.8698 861.602 60.5378 861.482 61.1963 861.32C61.8729 861.163 62.5406 860.969 63.1963 860.74C63.3747 860.66 63.5483 860.57 63.7163 860.47L63.7763 860.4C63.913 860.191 64.0366 859.974 64.1463 859.75C64.3172 859.296 64.4444 858.828 64.5263 858.35C64.5963 857.62 64.6063 856.88 64.6663 856.15C64.7263 855.42 64.7663 854.45 64.8263 853.6C64.8863 852.75 64.9863 851.6 65.0263 850.6C65.0663 849.6 65.1163 848.69 65.1763 847.74C65.1763 847.58 65.1763 847.43 65.1763 847.27C65.1163 845.4 65.0763 843.36 64.8663 841.34Z" fill="#4D4962"/>
</g>
<defs>
<clipPath id="clip0_35_335">
<rect width="141.106" height="910.98" fill="white"/>
</clipPath>
</defs>
</svg>
