<svg width="543" height="147" viewBox="0 0 543 147" fill="none" xmlns="http://www.w3.org/2000/svg">
<g clip-path="url(#clip0_35_366)">
<path d="M416.976 0H415.786C415.036 0 414.276 0.149995 413.546 0.259995L412.656 0.389999C411.756 0.509999 410.856 0.670003 410.176 0.800003L409.346 0.940002C408.764 1.02098 408.187 1.13112 407.616 1.27C407.256 1.37 406.886 1.49 406.506 1.63C406.063 1.7924 405.629 1.97935 405.206 2.19C404.85 2.41507 404.515 2.67283 404.206 2.95999L404.106 3.05L404.006 3.14C403.625 3.48961 403.289 3.88608 403.006 4.31999C402.859 4.53831 402.732 4.76921 402.626 5.00999L402.376 5.23C401.757 5.85408 401.399 6.69106 401.376 7.56999C401.246 9.23999 401.096 11.46 401.016 13.72C401.016 14.39 401.016 15.07 401.016 15.72C401.016 15.98 401.016 16.23 401.016 16.48C401.016 17.57 401.016 18.66 401.016 19.75C401.016 21.16 401.016 22.59 401.016 23.98C401.016 26.39 400.946 28.87 401.096 31.31C401.172 32.5143 401.319 33.713 401.536 34.9C401.71 35.8387 402.049 36.7392 402.536 37.56C403.436 38.9507 404.752 40.0216 406.296 40.62C407.048 40.9559 407.828 41.2269 408.626 41.43C409.286 41.59 409.966 41.69 410.626 41.79C411.566 41.92 412.516 42.02 413.326 42.1C414.136 42.18 415.056 42.25 416.016 42.3C416.976 42.35 417.676 42.37 418.396 42.37C419.54 42.3767 420.682 42.3065 421.816 42.16L422.266 42.11C422.837 42.0459 423.405 41.9525 423.966 41.83C424.466 41.7152 424.96 41.5751 425.446 41.41C426.513 41.0531 427.55 40.6117 428.546 40.09C428.912 39.8947 429.266 39.6777 429.606 39.44C430.188 39.0722 430.73 38.6467 431.226 38.17C432.04 37.3852 432.716 36.4691 433.226 35.46C433.861 34.1946 434.322 32.849 434.596 31.46C434.834 30.2333 435.008 28.9949 435.116 27.75C435.286 26.05 435.316 24.31 435.356 22.62V22.09C435.356 20.01 435.416 18.09 435.416 16.2C435.422 14.0924 435.201 11.9903 434.756 9.92999C434.502 8.80968 434.12 7.72248 433.616 6.69C433.199 5.83855 432.614 5.08008 431.896 4.45999C431.288 3.9351 430.616 3.48832 429.896 3.13C428.869 2.66528 427.813 2.26451 426.736 1.92999L426.256 1.77C425.646 1.57 425.006 1.35999 424.376 1.17999C422.417 0.610223 420.408 0.228498 418.376 0.0399933C418.006 0.0199933 417.486 0 416.976 0Z" fill="#03A9F4"/>
<path d="M473.746 25.2299C474.333 25.2299 474.923 25.2299 475.516 25.2299C476.949 25.3012 478.374 25.4885 479.776 25.7899C480.37 25.9143 480.952 26.0882 481.516 26.3099C482.27 26.5711 482.987 26.9308 483.646 27.3799C484.388 27.8575 484.958 28.5576 485.276 29.3799C485.477 29.8107 485.648 30.2551 485.786 30.7099C485.969 31.2984 486.106 31.9002 486.196 32.5099C486.591 35.3148 486.712 38.1515 486.556 40.9799C486.556 42.3099 486.496 43.6499 486.436 44.9799C486.401 46.4655 486.281 47.948 486.076 49.4199C486.022 49.9528 485.901 50.4769 485.716 50.9799C485.562 51.4104 485.375 51.8284 485.156 52.2299C484.937 52.613 484.686 52.9776 484.406 53.3199C484.164 53.6407 483.885 53.9326 483.576 54.1899C483.262 54.4346 482.928 54.652 482.576 54.8399C482.325 54.9749 482.064 55.0919 481.796 55.1899C481.5 55.3158 481.196 55.4227 480.886 55.5099C480.584 55.5966 480.277 55.6634 479.966 55.7099C479.496 55.7699 479.036 55.8499 478.566 55.8799C477.226 55.9699 475.886 55.9899 474.566 55.9499L472.466 55.8599L471.466 55.7699C471.003 55.7284 470.542 55.6617 470.086 55.5699C469.69 55.5067 469.301 55.4028 468.926 55.2599C468.424 55.0745 467.944 54.833 467.496 54.5399C467.019 54.2141 466.608 53.8 466.286 53.3199C465.991 52.845 465.749 52.3385 465.566 51.8099C465.309 51.0397 465.151 50.2399 465.096 49.4299C464.963 48.1946 464.91 46.952 464.936 45.7099C464.936 42.9599 465.046 40.1999 465.086 37.4499C465.086 36.1165 465.086 34.7832 465.086 33.4499V32.9199C465.028 32.3752 465.005 31.8275 465.016 31.2799C465.016 31.1599 465.016 31.0399 465.016 30.9199C465.016 30.4099 465.016 29.9199 464.946 29.3999C464.935 29.1147 464.989 28.8307 465.103 28.5691C465.217 28.3076 465.39 28.0754 465.606 27.8899C465.69 27.7254 465.787 27.5682 465.896 27.4199C466.276 26.8687 466.789 26.4217 467.386 26.1199C467.756 25.9325 468.141 25.7753 468.536 25.6499C468.823 25.5735 469.113 25.5135 469.406 25.4699C470.17 25.3416 470.942 25.2681 471.716 25.2499L473.746 25.2299ZM470.176 28.9799C469.946 29.0212 469.719 29.078 469.496 29.1499L469.276 29.2799L469.206 29.3499V29.3999C469.286 30.6699 469.356 31.9399 469.386 33.2199C469.466 35.8865 469.533 38.5732 469.586 41.2799C469.586 43.8499 469.586 46.4099 469.936 48.9599C470.02 49.5469 470.154 50.1257 470.336 50.6899V50.7599L470.536 50.8699C471.007 51.025 471.488 51.1453 471.976 51.2299C473.196 51.3699 474.426 51.4599 475.656 51.5299C476.912 51.6149 478.171 51.6149 479.426 51.5299C479.861 51.4554 480.29 51.345 480.706 51.1999L481.016 51.0199C481.147 50.8972 481.271 50.767 481.386 50.6299C481.535 50.4023 481.669 50.1651 481.786 49.9199C481.886 49.6425 481.966 49.3584 482.026 49.0699C482.236 46.5891 482.316 44.099 482.266 41.6099C482.325 38.9843 482.248 36.3575 482.036 33.7399C481.914 32.8249 481.703 31.924 481.406 31.0499L481.306 30.8799L481.146 30.7099C480.826 30.5076 480.491 30.3272 480.146 30.1699C479.906 30.0799 479.676 29.9899 479.426 29.9199C479.176 29.8499 478.666 29.7099 478.286 29.6199C477.568 29.4362 476.84 29.2927 476.106 29.1899C475.106 29.0699 474.176 28.9699 473.206 28.9099L471.486 28.9199C471.049 28.9114 470.611 28.9315 470.176 28.9799Z" fill="#03A9F4"/>
<path d="M503.236 92.9199C504.526 92.9199 505.826 92.9199 507.116 93.0099C507.766 93.0099 508.406 93.0999 509.056 93.0999C509.706 93.0999 510.256 93.0999 510.856 93.0999C512.29 93.1374 513.716 93.3115 515.116 93.6199C516.356 93.8999 517.606 94.1399 518.846 94.4399C520.413 94.687 521.911 95.2556 523.246 96.1099C523.689 96.4197 524.098 96.775 524.466 97.1699C524.867 97.5886 525.204 98.0637 525.466 98.5799C525.827 99.3008 526.118 100.054 526.336 100.83C526.676 102.04 526.976 103.26 527.286 104.48C527.936 106.98 528.346 109.48 528.746 112.08C528.956 113.39 529.176 114.7 529.356 116.02C529.576 117.59 529.716 119.17 529.806 120.76C529.946 123.38 530.066 126 529.986 128.62C529.986 130.08 529.876 131.54 529.796 133C529.707 134.548 529.536 136.09 529.286 137.62C529.139 138.504 528.877 139.364 528.506 140.18C528.207 140.8 527.827 141.379 527.376 141.9C526.863 142.501 526.255 143.014 525.576 143.42C524.989 143.77 524.378 144.078 523.746 144.34H523.676L523.346 144.48L523.206 144.54C522.596 144.79 521.976 145.04 521.346 145.26C520.716 145.48 520.096 145.66 519.466 145.84L518.286 146.17C517.47 146.368 516.642 146.512 515.806 146.6C515.186 146.68 514.546 146.74 513.916 146.79C511.157 146.982 508.39 147.028 505.626 146.93C502.742 146.885 499.865 146.604 497.026 146.09C495.749 145.852 494.487 145.538 493.246 145.15C492.447 144.901 491.663 144.607 490.896 144.27C490.315 144.031 489.768 143.719 489.266 143.34C488.614 142.893 488.06 142.318 487.636 141.65C487.346 141.152 487.134 140.612 487.006 140.05C486.852 139.241 486.752 138.422 486.706 137.6C486.626 136.33 486.596 135.06 486.636 133.79C486.826 128.27 486.916 122.74 487.026 117.22C487.096 113.8 487.166 110.38 487.196 106.96C487.105 106.858 487.025 106.748 486.956 106.63C486.777 106.327 486.684 105.982 486.686 105.63C486.611 104.338 486.611 103.042 486.686 101.75C486.655 100.235 486.963 98.7313 487.586 97.3499C488.032 96.4475 488.726 95.6912 489.586 95.1699C490.222 94.8342 490.893 94.5693 491.586 94.3799C492.176 94.2099 492.766 93.9999 493.376 93.8699C493.986 93.7399 494.546 93.5999 495.136 93.5099C495.726 93.4199 496.316 93.3199 496.906 93.2199C497.676 93.0999 498.446 93.0199 499.226 92.9499C500.486 92.9199 501.876 92.9199 503.236 92.9199ZM495.816 97.5999L494.296 97.8199L494.626 97.7699C494.036 97.8799 493.456 98.0199 492.876 98.1799C492.476 98.2899 492.076 98.3899 491.686 98.5299L491.326 98.7199L491.226 98.8299C491.106 99.0099 490.996 99.1799 490.886 99.3699C490.776 99.5599 490.796 99.7299 490.756 99.9199C490.676 100.76 490.676 101.62 490.666 102.47C490.656 103.32 490.666 103.89 490.666 104.6V105.22C490.726 110.68 490.846 116.15 490.966 121.61C491.026 124.44 491.076 127.26 491.146 130.08C491.206 132.54 491.276 135 491.566 137.44C491.634 137.995 491.748 138.544 491.906 139.08V139.17L492.166 139.42C492.53 139.661 492.911 139.875 493.306 140.06C494.336 140.455 495.388 140.789 496.456 141.06C497.056 141.21 497.656 141.36 498.266 141.47C498.876 141.58 499.676 141.71 500.386 141.81C503.044 142.09 505.715 142.221 508.386 142.2C509.686 142.2 510.976 142.2 512.266 142.2C513.556 142.2 514.636 142.05 515.816 141.91C516.975 141.689 518.117 141.391 519.236 141.02C519.976 140.8 520.696 140.53 521.416 140.24L521.746 140.09C522.259 139.858 522.75 139.584 523.216 139.27L523.606 138.9C523.716 138.73 523.816 138.55 523.916 138.37C524.062 137.929 524.172 137.478 524.246 137.02C524.375 135.774 524.438 134.522 524.436 133.27C524.436 131.81 524.436 130.34 524.436 128.88C524.436 127.42 524.376 126.15 524.306 124.79C524.166 122.28 524.046 119.79 523.736 117.29C523.496 115.55 523.216 113.82 522.986 112.09C522.756 110.36 522.426 108.38 521.986 106.53C521.786 105.59 521.586 104.64 521.356 103.7C521.126 102.76 520.966 102.09 520.696 101.31C520.596 101.13 520.496 100.95 520.386 100.78C520.25 100.62 520.103 100.47 519.946 100.33C519.789 100.227 519.625 100.133 519.456 100.05C518.238 99.6072 516.996 99.2332 515.736 98.9299C515.056 98.7599 514.376 98.5799 513.736 98.3899C513.187 98.2366 512.63 98.1164 512.066 98.0299C511.546 97.9699 511.066 97.9299 510.506 97.8899C509.946 97.8499 509.356 97.8899 508.776 97.8099L506.926 97.6699C505.566 97.5799 504.196 97.4999 502.826 97.4399C501.456 97.3799 500.196 97.3099 498.886 97.3599C497.876 97.3499 496.846 97.4699 495.816 97.5999Z" fill="#99DDC6"/>
<path d="M513.376 35.3799H514.376C515.716 35.3799 517.056 35.4699 518.376 35.5499C519.696 35.6299 521.096 35.7199 522.456 35.7799C523.816 35.8399 525.026 35.9899 526.316 36.0699C527.606 36.1499 528.956 36.2799 530.316 36.3699C531.779 36.4195 533.229 36.6479 534.636 37.0499C535.375 37.3013 536.091 37.6158 536.776 37.9899C537.561 38.3874 538.261 38.9343 538.836 39.5999C539.32 40.1749 539.726 40.8102 540.046 41.4899C540.356 42.2199 540.636 42.9499 540.876 43.7099C541.274 44.9187 541.566 46.1601 541.746 47.4199C541.961 48.9309 542.082 50.4538 542.106 51.9799C542.105 53.23 542.028 54.479 541.876 55.7199C541.726 57.2199 541.616 58.7199 541.346 60.2099C541.128 61.5172 540.794 62.8023 540.346 64.0499C540.08 64.7765 539.745 65.4763 539.346 66.1399C539.154 66.4271 538.947 66.7042 538.726 66.9699C538.6 67.1531 538.456 67.3239 538.296 67.4799C537.873 67.8658 537.407 68.2014 536.906 68.4799C535.458 69.2018 533.873 69.6107 532.256 69.6799C530.926 69.8299 529.596 69.9399 528.256 70.0199C526.916 70.0999 525.586 70.0999 524.256 70.1099C522.926 70.1199 521.606 70.1099 520.256 70.1099C518.906 70.1099 517.446 70.1099 516.036 70.0299C514.626 69.9499 513.486 69.8499 512.216 69.7599C510.946 69.6699 509.566 69.5399 508.216 69.3799C507.306 69.2699 506.396 69.1599 505.496 68.9799C504.821 68.8493 504.154 68.6824 503.496 68.4799C501.764 68.0808 500.186 67.184 498.956 65.8999C498.609 65.4994 498.295 65.0713 498.016 64.6199C497.742 64.1485 497.511 63.6531 497.326 63.1399C497.042 62.2943 496.857 61.4183 496.776 60.5299C496.651 59.2763 496.651 58.0134 496.776 56.7599C496.876 55.3599 497.056 53.9599 497.246 52.5699L497.636 49.6699C497.826 48.0499 498.006 46.4399 498.276 44.8399C498.389 44.2008 498.543 43.5695 498.736 42.9499C498.917 42.3571 499.134 41.776 499.386 41.2099C499.669 40.6384 500.022 40.1043 500.436 39.6199C500.94 38.9845 501.533 38.4254 502.196 37.9599L502.486 37.9199L502.676 37.7999C503.236 37.4721 503.821 37.1911 504.426 36.9599C505.901 36.296 507.5 35.9551 509.116 35.9599C509.404 35.8011 509.728 35.7185 510.056 35.7199H510.346C511.026 35.6299 511.696 35.5499 512.346 35.5099C512.716 35.3899 513.046 35.3799 513.376 35.3799ZM509.756 40.8499C509.561 40.8726 509.368 40.906 509.176 40.9499C508.734 41.048 508.3 41.1784 507.876 41.3399C507.216 41.6199 506.581 41.9544 505.976 42.3399L505.776 42.4699C505.639 42.5991 505.509 42.736 505.386 42.8799C505.204 43.145 505.04 43.4223 504.896 43.7099C504.631 44.5498 504.43 45.4091 504.296 46.2799C503.996 48.6999 503.806 51.1399 503.506 53.5599C503.346 54.9099 503.226 56.2599 503.156 57.6199C503.086 58.6754 503.086 59.7344 503.156 60.7899C503.226 61.0799 503.296 61.3699 503.386 61.6599C503.487 61.8488 503.597 62.0324 503.716 62.2099L503.856 62.3599C504.143 62.5409 504.44 62.7045 504.746 62.8499C505.541 63.1601 506.356 63.4141 507.186 63.6099C508.076 63.8199 508.996 63.9399 509.906 64.0799C511.006 64.2199 512.106 64.3299 513.206 64.4699C514.576 64.6499 515.936 64.7599 517.316 64.8299C520.026 64.9799 522.746 65.0099 525.466 65.0499C527.941 65.0985 530.417 64.9815 532.876 64.6999C533.335 64.6335 533.787 64.5264 534.226 64.3799L534.646 64.1399L534.836 63.9399C535.111 63.5199 535.352 63.0785 535.556 62.6199C535.946 61.3884 536.237 60.1277 536.426 58.8499C536.526 58.0299 536.596 57.2099 536.656 56.3899C536.716 55.5699 536.836 54.5999 536.906 53.6999C536.976 52.7999 536.986 51.8399 536.976 50.8999C536.966 49.9599 536.926 49.0899 536.826 48.1899C536.718 47.3112 536.557 46.4397 536.346 45.5799C536.139 44.7005 535.885 43.8326 535.586 42.9799C535.479 42.7449 535.355 42.5177 535.216 42.2999L535.126 42.2099C534.849 42.031 534.562 41.8675 534.266 41.7199C533.673 41.4985 533.06 41.3312 532.436 41.2199C531.436 41.1299 530.436 41.1099 529.516 41.0399C528.396 40.9499 527.276 40.9099 526.156 40.8199C524.846 40.7299 523.536 40.6199 522.226 40.5599C520.916 40.4999 519.716 40.4399 518.456 40.3599H517.836C515.126 40.5099 512.426 40.5599 509.756 40.8499Z" fill="#4D4962"/>
<path d="M469.996 80.08C469.996 80.33 469.996 80.5699 469.996 80.8199C469.996 81.8199 469.936 82.8199 469.876 83.8199C469.816 84.8199 469.746 85.88 469.696 86.91C469.646 87.94 469.546 88.85 469.486 89.83C469.426 90.81 469.326 91.83 469.246 92.83C469.212 93.9401 469.04 95.0417 468.736 96.11C468.549 96.6672 468.312 97.2061 468.026 97.72C467.73 98.3207 467.315 98.8549 466.806 99.2899C466.374 99.6554 465.893 99.9583 465.376 100.19C464.828 100.433 464.267 100.646 463.696 100.83C462.78 101.13 461.84 101.351 460.886 101.49C459.743 101.65 458.591 101.74 457.436 101.76C456.487 101.755 455.539 101.695 454.596 101.58C453.466 101.47 452.326 101.39 451.206 101.18C450.215 101.014 449.24 100.756 448.296 100.41C447.743 100.201 447.211 99.9396 446.706 99.63C446.486 99.49 446.286 99.32 446.086 99.17C445.949 99.0649 445.819 98.9513 445.696 98.83C445.395 98.5129 445.133 98.1603 444.916 97.78C444.367 96.6839 444.053 95.4847 443.996 94.2599C443.886 93.2599 443.806 92.2599 443.746 91.2599C443.686 90.2599 443.686 89.2599 443.676 88.2599C443.666 87.2599 443.676 86.2599 443.676 85.2599C443.676 84.2599 443.676 83.13 443.726 82.06C443.776 80.99 443.866 80.14 443.936 79.17C444.006 78.2 444.096 77.17 444.226 76.17C444.306 75.48 444.386 74.79 444.526 74.11C444.627 73.6038 444.754 73.1031 444.906 72.61C445.215 71.2895 445.912 70.0915 446.906 69.17C447.22 68.9062 447.554 68.6687 447.906 68.4599C448.264 68.2543 448.639 68.0803 449.026 67.94C449.673 67.7183 450.345 67.5772 451.026 67.52C451.974 67.425 452.929 67.425 453.876 67.52C454.946 67.59 455.996 67.73 457.056 67.88L459.246 68.17C460.466 68.32 461.696 68.4499 462.906 68.6499C463.389 68.7406 463.866 68.8575 464.336 69C464.786 69.1396 465.227 69.3066 465.656 69.5C466.088 69.7112 466.491 69.9767 466.856 70.2899C467.336 70.6726 467.76 71.1203 468.116 71.6199L468.236 71.81L468.326 71.95C468.572 72.3738 468.785 72.815 468.966 73.27C469.467 74.3899 469.726 75.603 469.726 76.83C469.85 77.05 469.915 77.2977 469.916 77.55V77.77C469.986 78.28 470.046 78.77 470.076 79.31C469.996 79.58 469.996 79.83 469.996 80.08ZM465.866 77.34C465.866 77.19 465.866 77.0399 465.786 76.8999C465.708 76.5604 465.608 76.2264 465.486 75.8999C465.264 75.4004 465.003 74.9189 464.706 74.4599L464.596 74.31C464.504 74.2026 464.404 74.1023 464.296 74.0099C464.096 73.8714 463.885 73.7478 463.666 73.64C463.012 73.4385 462.343 73.2848 461.666 73.1799C459.836 72.9599 457.996 72.81 456.156 72.59C455.156 72.47 454.156 72.3799 453.086 72.3199C452.287 72.27 451.486 72.27 450.686 72.3199C450.462 72.3648 450.242 72.425 450.026 72.5C449.88 72.5679 449.739 72.6482 449.606 72.74L449.496 72.8499C449.358 73.0664 449.231 73.2901 449.116 73.52C448.884 74.1229 448.694 74.741 448.546 75.3699C448.386 76.0499 448.296 76.7399 448.186 77.3699C448.086 78.2099 447.996 79.05 447.886 79.88C447.756 80.88 447.676 81.95 447.616 82.99C447.506 85.04 447.486 87.1 447.456 89.16C447.418 91.0337 447.505 92.9078 447.716 94.77C447.772 95.1097 447.855 95.4442 447.966 95.77C448.019 95.8775 448.079 95.9811 448.146 96.08L448.296 96.2299C448.615 96.4353 448.95 96.6159 449.296 96.77C450.23 97.0663 451.187 97.287 452.156 97.4299C452.776 97.4999 453.396 97.5599 454.016 97.5999C454.636 97.6399 455.366 97.7399 456.016 97.7899C456.666 97.8399 457.426 97.8499 458.136 97.7899C458.824 97.7882 459.512 97.7515 460.196 97.6799C460.87 97.6018 461.538 97.4815 462.196 97.3199C462.873 97.1627 463.541 96.9691 464.196 96.74C464.375 96.66 464.548 96.5698 464.716 96.47L464.776 96.3999C464.913 96.1912 465.037 95.9741 465.146 95.75C465.317 95.2964 465.444 94.8276 465.526 94.3499C465.596 93.6199 465.606 92.8799 465.666 92.1499C465.726 91.4199 465.766 90.4499 465.826 89.5999C465.886 88.7499 465.986 87.5999 466.026 86.5999C466.066 85.5999 466.116 84.69 466.176 83.74C466.176 83.58 466.176 83.43 466.176 83.27C466.116 81.4 466.076 79.36 465.866 77.34Z" fill="#4D4962"/>
</g>
<defs>
<clipPath id="clip0_35_366">
<rect width="542.106" height="146.98" fill="white"/>
</clipPath>
</defs>
</svg>
